<?xml version="1.0" encoding="UTF-8"?>
<svg version="1.1" xmlns="http://www.w3.org/2000/svg" width="128" height="128">
<path d="M0 0 C1.20527344 0.00322266 2.41054687 0.00644531 3.65234375 0.00976562 C4.90660156 0.01814453 6.16085938 0.02652344 7.453125 0.03515625 C9.35771484 0.04192383 9.35771484 0.04192383 11.30078125 0.04882812 C14.43491595 0.06061059 17.56902642 0.07854589 20.703125 0.09765625 C20.703125 7.35765625 20.703125 14.61765625 20.703125 22.09765625 C11.953125 22.34765625 11.953125 22.34765625 9.21582031 22.39550781 C5.50927143 22.55291601 3.29531849 22.68937378 0.1875 24.83203125 C-2.72751961 29.2812717 -2.51928948 34.21170614 -2.859375 39.41015625 C-3.00375 41.61703125 -3.148125 43.82390625 -3.296875 46.09765625 C4.293125 46.09765625 11.883125 46.09765625 19.703125 46.09765625 C19.2390625 50.92390625 19.2390625 50.92390625 18.765625 55.84765625 C18.62265991 57.35924316 18.62265991 57.35924316 18.47680664 58.90136719 C18.39809326 59.70348633 18.31937988 60.50560547 18.23828125 61.33203125 C18.159729 62.14897461 18.08117676 62.96591797 18.00024414 63.80761719 C17.703125 66.09765625 17.703125 66.09765625 16.703125 70.09765625 C10.103125 70.09765625 3.503125 70.09765625 -3.296875 70.09765625 C-3.296875 89.23765625 -3.296875 108.37765625 -3.296875 128.09765625 C-11.216875 128.09765625 -19.136875 128.09765625 -27.296875 128.09765625 C-27.296875 108.95765625 -27.296875 89.81765625 -27.296875 70.09765625 C-33.896875 70.09765625 -40.496875 70.09765625 -47.296875 70.09765625 C-47.296875 62.17765625 -47.296875 54.25765625 -47.296875 46.09765625 C-40.696875 46.09765625 -34.096875 46.09765625 -27.296875 46.09765625 C-27.34328125 44.56496094 -27.3896875 43.03226563 -27.4375 41.453125 C-27.98283632 16.07625339 -27.98283632 16.07625339 -18.94140625 6.53125 C-13.13537749 1.46993752 -7.56024323 -0.03566152 0 0 Z " fill="#010002" transform="translate(77.296875,-0.09765625)"/>
</svg>
