<?xml version="1.0" encoding="UTF-8"?>
<svg version="1.1" xmlns="http://www.w3.org/2000/svg" width="128" height="128">
<path d="M0 0 C0.76480682 -0.0065712 1.52961365 -0.0131424 2.31759644 -0.01991272 C4.84503284 -0.03959749 7.37240986 -0.05129961 9.89990234 -0.0612793 C10.76635754 -0.06535482 11.63281273 -0.06943035 12.52552414 -0.07362938 C17.1146699 -0.09447293 21.70378593 -0.10878018 26.29296875 -0.11816406 C31.0137465 -0.1292048 35.73404984 -0.16358247 40.45466042 -0.20333576 C44.10086899 -0.22958885 47.7469662 -0.23786374 51.39326096 -0.24144554 C53.1322486 -0.24629168 54.87123194 -0.25784888 56.6101265 -0.27648354 C69.01241871 -0.40109506 79.15118545 0.29915855 88.60302734 9.17700195 C94.68818695 16.10056133 96.50407948 22.80124472 96.5378418 31.81616211 C96.54441299 32.58096893 96.55098419 33.34577576 96.55775452 34.13375854 C96.57743929 36.66119495 96.58914141 39.18857197 96.59912109 41.71606445 C96.60319662 42.58251965 96.60727215 43.44897484 96.61147118 44.34168625 C96.63231472 48.93083201 96.64662197 53.51994804 96.65600586 58.10913086 C96.6670466 62.82990861 96.70142427 67.55021195 96.74117756 72.27082253 C96.76743064 75.9170311 96.77570554 79.5631283 96.77928734 83.20942307 C96.78413348 84.94841071 96.79569068 86.68739405 96.81432533 88.4262886 C96.93893686 100.82858082 96.23868324 110.96734756 87.36083984 120.41918945 C80.43728046 126.50434906 73.73659708 128.32024159 64.72167969 128.35400391 C63.95687286 128.3605751 63.19206604 128.3671463 62.40408325 128.37391663 C59.87664684 128.3936014 57.34926982 128.40530352 54.82177734 128.4152832 C53.52209455 128.42139649 53.52209455 128.42139649 52.19615555 128.42763329 C47.60700979 128.44847683 43.01789375 128.46278408 38.42871094 128.47216797 C33.70793319 128.48320871 28.98762985 128.51758638 24.26701927 128.55733967 C20.62081069 128.58359275 16.97471349 128.59186765 13.32841873 128.59544945 C11.58943108 128.60029559 9.85044775 128.61185279 8.11155319 128.63048744 C-4.29073902 128.75509897 -14.42950576 128.05484535 -23.88134766 119.17700195 C-29.96650727 112.25344257 -31.78239979 105.55275919 -31.81616211 96.5378418 C-31.82273331 95.77303497 -31.8293045 95.00822815 -31.83607483 94.22024536 C-31.8557596 91.69280895 -31.86746172 89.16543193 -31.87744141 86.63793945 C-31.88151693 85.77148426 -31.88559246 84.90502907 -31.88979149 84.01231766 C-31.91063504 79.4231719 -31.92494229 74.83405586 -31.93432617 70.24487305 C-31.94536691 65.5240953 -31.97974458 60.80379196 -32.01949787 56.08318138 C-32.04575096 52.4369728 -32.05402585 48.7908756 -32.05760765 45.14458084 C-32.06245379 43.40559319 -32.07401099 41.66660986 -32.09264565 39.9277153 C-32.21725717 27.52542309 -31.51700356 17.38665635 -22.63916016 7.93481445 C-15.71560078 1.84965484 -9.01491739 0.03376231 0 0 Z M-14.57666016 19.98950195 C-18.09350761 25.42462984 -18.88861429 30.69568571 -18.91381836 37.08691406 C-18.91892929 37.7383287 -18.92404022 38.38974335 -18.92930603 39.06089783 C-18.94308861 41.19214329 -18.94225404 43.32306126 -18.93994141 45.4543457 C-18.94383436 46.949754 -18.94817026 48.44516121 -18.95292664 49.94056702 C-18.96036431 53.06653436 -18.9601153 56.1923887 -18.95483398 59.31835938 C-18.94904024 63.30719964 -18.96597965 67.29557542 -18.98917866 71.28433895 C-19.00397069 74.37031214 -19.00478034 77.45617483 -19.00166893 80.5421772 C-19.00217932 82.01205935 -19.0073636 83.48194815 -19.01748085 84.95179558 C-19.07200339 93.97912733 -18.85034842 101.19412361 -13.82666016 108.98950195 C-8.41368059 114.40248152 -2.39235554 115.29558307 4.93017578 115.33813477 C5.58115234 115.34309967 6.23212891 115.34806458 6.90283203 115.35317993 C9.05030386 115.36774924 11.19770177 115.37459558 13.34521484 115.38012695 C14.84490967 115.38588371 16.3446045 115.39164138 17.84429932 115.3973999 C20.98816265 115.40789572 24.13200053 115.41374733 27.27587891 115.41723633 C31.28831528 115.42271115 35.30041063 115.44672323 39.31274033 115.47520828 C42.41156978 115.49391012 45.51031842 115.49904431 48.60919952 115.5005722 C50.08746449 115.50358342 51.56572856 115.51155978 53.04393768 115.52475739 C62.11049289 115.59991195 69.34267988 115.41092726 77.17333984 110.36450195 C82.58631941 104.95152239 83.47942096 98.93019734 83.52197266 91.60766602 C83.52693756 90.95668945 83.53190247 90.30571289 83.53701782 89.63500977 C83.55158713 87.48753794 83.55843347 85.34014003 83.56396484 83.19262695 C83.5697216 81.69293213 83.57547927 80.1932373 83.58123779 78.69354248 C83.59173361 75.54967915 83.59758522 72.40584127 83.60107422 69.26196289 C83.60654904 65.24952652 83.63056112 61.23743116 83.65904617 57.22510147 C83.67774801 54.12627202 83.6828822 51.02752338 83.6844101 47.92864227 C83.68742131 46.4503773 83.69539767 44.97211324 83.70859528 43.49390411 C83.78374984 34.4273489 83.59476515 27.19516192 78.54833984 19.36450195 C73.11323814 13.92940025 67.06507448 13.06081112 59.71557617 13 C59.05645233 12.9934288 58.39732849 12.9868576 57.7182312 12.98008728 C55.54310984 12.96042509 53.36805738 12.9487059 51.19287109 12.9387207 C50.44652594 12.93464518 49.70018078 12.93056965 48.9312191 12.92637062 C44.97864436 12.90553729 41.02610403 12.89122532 37.07348633 12.88183594 C33.00948329 12.87079355 28.94603109 12.83641151 24.88222218 12.79666424 C21.74131822 12.77040258 18.60054348 12.76213557 15.45953941 12.75855446 C13.96254455 12.75371096 12.46555457 12.74216139 10.96866798 12.72351646 C1.47962051 12.61269422 -7.6866354 12.57333908 -14.57666016 19.98950195 Z " fill="#000000" transform="translate(31.63916015625,-0.177001953125)"/>
<path d="M0 0 C5.86737104 4.68083404 10.46299423 10.97783144 11.79296875 18.4921875 C12.57111572 30.04958349 12.10601255 39.40284306 4.60546875 48.8046875 C-0.97158079 54.74232214 -7.64657386 58.18513684 -15.74609375 58.73046875 C-27.1690972 59.04233576 -35.80755074 57.60905786 -44.44921875 49.4921875 C-52.10326523 40.78358351 -52.90184616 31.56268272 -52.38183594 20.43652344 C-51.65760597 12.38098234 -47.16729963 5.73070463 -41.20703125 0.4921875 C-28.89887664 -7.86571479 -12.43494177 -8.49537615 0 0 Z M-35.14453125 14.3046875 C-38.57430467 19.60524642 -39.77711208 24.32170255 -38.74609375 30.5078125 C-37.22296558 36.1146901 -34.1511802 40.38772188 -29.20703125 43.4921875 C-23.30213347 45.83186398 -18.15957028 46.11497792 -12.28515625 43.703125 C-6.95244404 40.90003268 -4.09253676 37.72703475 -1.89453125 32.1796875 C-0.83182098 26.47969604 -1.24002163 21.91113263 -3.95703125 16.7421875 C-7.87740625 11.07942362 -11.48147231 8.9333787 -18.20703125 7.4921875 C-24.33850642 6.52405984 -31.05911903 9.78285142 -35.14453125 14.3046875 Z " fill="#000000" transform="translate(84.20703125,37.5078125)"/>
<path d="M0 0 C2.375 1.625 2.375 1.625 4 4 C4.5625 7 4.5625 7 4 10 C1.57904909 12.62846098 -0.04614692 13.81388233 -3.5625 14.5 C-6.88912957 13.81761445 -8.04078918 12.75740782 -10 10 C-10.61195145 6.3282913 -10.48706506 4.71186432 -8.375 1.625 C-5.28813568 -0.48706506 -3.6717087 -0.61195145 0 0 Z " fill="#000000" transform="translate(99,25)"/>
</svg>
